<?xml version="1.0" encoding="UTF-8"?>
<svg xmlns="http://www.w3.org/2000/svg" xmlns:xlink="http://www.w3.org/1999/xlink" width="52pt" height="52pt" viewBox="0 0 52 52" version="1.1">
<g id="surface1">
<path style=" stroke:none;fill-rule:nonzero;fill:rgb(0%,0%,0%);fill-opacity:1;" d="M 50.097656 15.691406 L 47.800781 17.992188 L 34.011719 4.203125 L 36.308594 1.902344 C 38.847656 -0.636719 42.964844 -0.636719 45.503906 1.902344 L 50.097656 6.5 C 52.632812 9.039062 52.632812 13.152344 50.097656 15.691406 Z M 17.921875 43.269531 C 17.289062 43.902344 17.289062 44.933594 17.921875 45.566406 C 18.558594 46.203125 19.585938 46.203125 20.21875 45.566406 L 45.503906 20.289062 L 43.203125 17.992188 Z M 6.429688 31.78125 C 5.796875 32.414062 5.796875 33.441406 6.429688 34.078125 C 7.066406 34.710938 8.09375 34.710938 8.726562 34.078125 L 34.011719 8.800781 L 31.710938 6.5 Z M 36.304688 11.09375 L 11.027344 36.375 C 9.757812 37.640625 9.757812 39.703125 11.027344 40.972656 C 12.296875 42.242188 14.351562 42.246094 15.625 40.96875 L 40.902344 15.691406 Z M 15.617188 47.859375 C 14.839844 47.082031 14.464844 46.09375 14.328125 45.078125 C 13.996094 45.128906 13.664062 45.175781 13.324219 45.175781 C 11.585938 45.175781 9.957031 44.496094 8.726562 43.269531 C 7.5 42.039062 6.824219 40.410156 6.824219 38.671875 C 6.824219 38.355469 6.871094 38.046875 6.914062 37.738281 C 5.863281 37.597656 4.894531 37.136719 4.132812 36.375 C 4.058594 36.300781 4.035156 36.203125 3.96875 36.125 L 0 52 L 15.832031 48.035156 C 15.765625 47.972656 15.683594 47.925781 15.617188 47.859375 Z M 15.617188 47.859375 "/>
</g>
</svg>
